<?xml version="1.0" standalone="no"?>
<!DOCTYPE svg PUBLIC "-//W3C//DTD SVG 20010904//EN"
 "http://www.w3.org/TR/2001/REC-SVG-20010904/DTD/svg10.dtd">
<svg version="1.0" xmlns="http://www.w3.org/2000/svg"
 width="16.000000pt" height="16.000000pt" viewBox="0 0 16.000000 16.000000"
 preserveAspectRatio="xMidYMid meet">

<g transform="translate(0.000000,16.000000) scale(0.100000,-0.100000)"
fill="#000000" stroke="none">
<path d="M45 140 c-7 -12 2 -30 16 -30 12 0 12 27 0 35 -5 3 -12 1 -16 -5z"/>
<path d="M92 124 c4 -21 22 -23 26 -1 2 10 -3 17 -13 17 -10 0 -15 -6 -13 -16z"/>
<path d="M12 86 c1 -10 8 -17 13 -17 15 1 12 24 -3 29 -9 3 -13 -2 -10 -12z"/>
<path d="M130 85 c0 -8 5 -15 10 -15 6 0 10 7 10 15 0 8 -4 15 -10 15 -5 0
-10 -7 -10 -15z"/>
<path d="M45 60 c-16 -16 -25 -33 -21 -37 11 -11 116 -12 116 -2 0 16 -43 69
-55 69 -6 0 -24 -13 -40 -30z"/>
</g>
</svg>
